<svg width="18" height="18" viewBox="0 0 18 18" fill="none" xmlns="http://www.w3.org/2000/svg">
<path d="M16.418 0.597656H1.58203C0.709699 0.597656 0 1.30736 0 2.17969V12.4453C0 13.3176 0.709699 14.0273 1.58203 14.0273H6.68999L6.30327 16.3477H5.625C5.33377 16.3477 5.09766 16.5838 5.09766 16.875C5.09766 17.1662 5.33377 17.4023 5.625 17.4023H12.375C12.6662 17.4023 12.9023 17.1662 12.9023 16.875C12.9023 16.5838 12.6662 16.3477 12.375 16.3477H11.6967L11.31 14.0273H16.418C17.2903 14.0273 18 13.3176 18 12.4453V2.17969C18 1.30736 17.2903 0.597656 16.418 0.597656ZM10.6275 16.3477H7.37251L7.75923 14.0273H10.2408L10.6275 16.3477ZM16.9453 12.4453C16.9453 12.7361 16.7087 12.9727 16.418 12.9727C16.0417 12.9727 2.02335 12.9727 1.58203 12.9727C1.29125 12.9727 1.05469 12.7361 1.05469 12.4453V2.17969C1.05469 1.88891 1.29125 1.65234 1.58203 1.65234H8.47266V2.25C8.47266 2.54123 8.70877 2.77734 9 2.77734C9.29123 2.77734 9.52734 2.54123 9.52734 2.25V1.65234H16.418C16.7087 1.65234 16.9453 1.88891 16.9453 2.17969V12.4453Z" fill="#030067"/>
<path d="M7.3125 7.34766C7.02127 7.34766 6.78516 7.58377 6.78516 7.875V9.59766H5.58984V6.1875C5.58984 5.89627 5.35373 5.66016 5.0625 5.66016C4.77127 5.66016 4.53516 5.89627 4.53516 6.1875V9.59766H3.33984V4.5C3.33984 4.20877 3.10373 3.97266 2.8125 3.97266C2.52127 3.97266 2.28516 4.20877 2.28516 4.5V10.125C2.28516 10.4162 2.52127 10.6523 2.8125 10.6523H7.3125C7.60373 10.6523 7.83984 10.4162 7.83984 10.125V7.875C7.83984 7.58377 7.60373 7.34766 7.3125 7.34766Z" fill="#030067"/>
<path d="M12.6562 4.25391C10.9697 4.25391 9.59766 5.62598 9.59766 7.3125C9.59766 8.14314 9.93066 8.89738 10.47 9.44912C10.4942 9.47679 10.4931 9.47545 10.5196 9.49873C11.0713 10.0381 11.8256 10.3711 12.6562 10.3711C14.3428 10.3711 15.7148 8.99902 15.7148 7.3125C15.7148 5.62598 14.3428 4.25391 12.6562 4.25391ZM14.5892 6.78516H13.1836V5.3795C13.8653 5.56569 14.4031 6.10344 14.5892 6.78516ZM12.1289 5.3795V7.09407L10.917 8.30595C10.2651 7.16903 10.8708 5.72316 12.1289 5.3795ZM11.6628 9.05171L12.8747 7.83984H14.5892C14.2451 9.09981 12.7982 9.70277 11.6628 9.05171Z" fill="#030067"/>
</svg>
