<svg width="18" height="18" viewBox="0 0 18 18" fill="none" xmlns="http://www.w3.org/2000/svg">
<path d="M5.45412 13.3305L4.60254 14.0845C4.8737 14.3896 5.16828 14.673 5.48365 14.9321L6.20352 14.0521C5.93502 13.8318 5.68444 13.5905 5.45412 13.3305Z" fill="#030067"/>
<path d="M4.33516 11.574L3.29169 12.0219C3.45303 12.3979 3.6446 12.7602 3.86452 13.1052L4.82227 12.4966C4.63549 12.2025 4.47259 11.8941 4.33516 11.574Z" fill="#030067"/>
<path d="M14.1787 2.36894C13.0113 1.69211 11.686 1.33547 10.3365 1.33511C6.49855 1.34129 3.25604 4.18356 2.74721 7.9877L0.802761 6.04325L0 6.84601L3.24 10.086L6.48 6.84601L5.67724 6.04325L3.92127 7.79694C4.58845 4.25726 7.9988 1.92867 11.5385 2.59585C15.0782 3.26303 17.4068 6.67338 16.7396 10.213C16.0724 13.7527 12.662 16.0813 9.12236 15.4141C8.39677 15.2774 7.69968 15.0184 7.06078 14.6482L6.49022 15.6298C10.1521 17.7529 14.8418 16.5055 16.9649 12.8436C19.088 9.18173 17.8406 4.49205 14.1787 2.36894Z" fill="#030067"/>
<path d="M9.48499 3.88986V10.1348L11.983 12.0083L12.6642 11.1L10.6204 9.5671V3.88986H9.48499Z" fill="#030067"/>
</svg>
