<svg width="43" height="43" viewBox="0 0 43 43" fill="none" xmlns="http://www.w3.org/2000/svg">
<circle cx="21.5" cy="21.5" r="21" fill="#030067" stroke="#030067"/>
<g clip-path="url(#clip0)">
<path d="M28.8815 12.4629C27.2867 9.71068 24.454 8.02926 21.304 7.965C21.1695 7.96223 21.0342 7.96223 20.8997 7.965C17.7497 8.02926 14.9171 9.71068 13.3222 12.4629C11.6921 15.276 11.6475 18.6552 13.2029 21.5022L19.7191 33.4291C19.7221 33.4344 19.725 33.4397 19.728 33.445C20.0147 33.9433 20.5283 34.2407 21.102 34.2407C21.6755 34.2407 22.1891 33.9432 22.4758 33.445C22.4788 33.4397 22.4817 33.4344 22.4847 33.4291L29.0009 21.5022C30.5562 18.6552 30.5116 15.276 28.8815 12.4629ZM21.1019 19.8701C19.0642 19.8701 17.4065 18.2124 17.4065 16.1748C17.4065 14.1371 19.0642 12.4794 21.1019 12.4794C23.1395 12.4794 24.7972 14.1371 24.7972 16.1748C24.7972 18.2124 23.1395 19.8701 21.1019 19.8701Z" fill="white"/>
</g>
<defs>
<clipPath id="clip0">
<rect width="26.2778" height="26.2778" fill="white" transform="translate(7.96295 7.96295)"/>
</clipPath>
</defs>
</svg>
